<?xml version="1.0" standalone="no"?>
<!DOCTYPE svg PUBLIC "-//W3C//DTD SVG 1.1//EN" "http://www.w3.org/Graphics/SVG/1.1/DTD/svg11.dtd" >
<svg xmlns="http://www.w3.org/2000/svg" xmlns:xlink="http://www.w3.org/1999/xlink" version="1.1">
<metadata>
Created by FontForge 20170910 at Fri Jul 14 21:07:05 2017
 By jimmywarting
Copyright (c) 2017 by Alexander Pravdin. All rights reserved.
</metadata>
<defs>
<font id="NEXTART-Bold" horiz-adv-x="0" >
  <font-face 
    font-family="NEXT ART"
    font-weight="700"
    font-stretch="normal"
    units-per-em="2048"
    panose-1="2 0 8 0 0 0 0 0 0 0"
    ascent="1638"
    descent="-410"
    x-height="1433"
    cap-height="1435"
    bbox="0 -295 2458 1873"
    underline-thickness="150"
    underline-position="-292"
    unicode-range="U+001D-2122"
  />
<missing-glyph horiz-adv-x="1189" 
d="M1005 0h-824v1434h824v-1434zM231 1384v-1334h724v1334h-724z" />
    <glyph glyph-name=".notdef" horiz-adv-x="1189" 
d="M1005 0h-824v1434h824v-1434zM231 1384v-1334h724v1334h-724z" />
    <glyph glyph-name="NULL" 
 />
    <glyph glyph-name="NULL" 
 />
    <glyph glyph-name="CR" horiz-adv-x="508" 
 />
    <glyph glyph-name="space" unicode=" " horiz-adv-x="508" 
 />
    <glyph glyph-name="space" unicode="&#xa0;" horiz-adv-x="508" 
 />
    <glyph glyph-name="exclam" unicode="!" horiz-adv-x="587" 
d="M398 44c-29 -29 -65 -44 -106 -44s-77 15 -106 44s-44 65 -44 106s15 77 44 106s65 44 106 44s77 -15 106 -44s44 -65 44 -106s-15 -77 -44 -106zM442 1434l-19 -1019h-262l-19 1019h300z" />
    <glyph glyph-name="quotedbl" unicode="&#x22;" horiz-adv-x="921" 
d="M504 1434h257l-26 -452h-231v452zM158 1434h257v-452h-231z" />
    <glyph glyph-name="numbersign" unicode="#" horiz-adv-x="1571" 
d="M1010 1434h294l-65 -352h297l-48 -258h-297l-39 -214h297l-48 -257h-297l-65 -353h-294l65 353h-184l-65 -353h-294l65 353h-297l48 257h297l39 214h-297l48 258h297l65 352h294l-65 -352h184zM713 824l-39 -214h184l39 214h-184z" />
    <glyph glyph-name="dollar" unicode="$" horiz-adv-x="1202" 
d="M927 787c173 -74 259 -191 259 -352c0 -129 -51 -232 -152 -310c-81 -62 -182 -102 -304 -119v-246h-268v257c-97 21 -193 61 -286 118c-33 21 -64 43 -95 66l-33 27l-13 11l-5 4l-5 5l184 205c29 -30 69 -60 118 -91c43 -27 88 -47 133 -62c56 -19 112 -29 168 -29
c99 0 171 23 217 68c16 16 28 34 36 55c3 7 6 15 7 23c1 6 2 12 2 17c0 56 -44 99 -132 128c-28 9 -61 17 -99 24l-21 3l-19 3c-14 2 -22 3 -25 4c-2 0 -6 1 -13 2l-10 1l-13 2c-24 3 -47 7 -68 11c-70 14 -133 33 -189 56c-174 73 -261 186 -261 337c0 141 52 249 156 324
c39 28 85 51 138 68c40 13 83 23 128 29v245h268v-255c123 -25 239 -76 350 -155l-170 -204c-59 45 -132 75 -220 92c-29 5 -58 9 -87 11c-10 1 -20 1 -29 1h-10h-6c-23 0 -45 -1 -65 -3c-28 -4 -52 -10 -73 -18c-56 -22 -84 -59 -84 -112c0 -59 43 -103 129 -133
c28 -10 61 -18 98 -25l22 -4l19 -3c15 -2 24 -3 27 -4s7 -1 14 -2l11 -2l13 -1c25 -3 48 -7 70 -11c70 -13 133 -32 188 -56z" />
    <glyph glyph-name="percent" unicode="%" horiz-adv-x="2133" 
d="M1314 1434h292l-788 -1434h-293zM599 1134c-27 40 -63 60 -109 60c-45 0 -82 -20 -109 -60c-24 -35 -36 -79 -36 -131s12 -96 36 -132c27 -40 64 -60 109 -60c46 0 82 20 109 60c24 36 36 80 36 132s-12 96 -36 131zM792 682c-81 -85 -181 -127 -302 -127
c-120 0 -220 42 -301 126c-81 85 -122 193 -122 322s41 236 122 321c80 85 180 127 301 127s221 -42 302 -127s121 -192 121 -321s-40 -236 -121 -321zM1533 300c27 -39 63 -59 109 -59c45 0 82 20 109 59c24 36 36 80 36 132s-12 96 -36 132c-27 39 -64 59 -109 59
c-46 0 -82 -20 -109 -59c-24 -36 -36 -80 -36 -132s12 -96 36 -132zM1340 753c81 85 181 127 302 127s221 -42 301 -127c81 -85 122 -192 122 -321s-41 -236 -122 -321c-80 -85 -180 -127 -301 -127s-221 42 -301 127c-81 85 -122 192 -122 321s40 236 121 321z" />
    <glyph glyph-name="ampersand" unicode="&#x26;" horiz-adv-x="1478" 
d="M435 330c39 -36 85 -54 139 -54c69 0 126 26 171 77l-245 274c-37 -14 -66 -36 -88 -66c-23 -31 -34 -65 -34 -102c0 -51 19 -94 57 -129zM1132 350l313 -349h-385l-121 135c-108 -91 -232 -136 -371 -136c-136 0 -252 45 -347 134c-96 89 -144 196 -144 322
c0 79 23 152 70 219c42 62 100 114 175 156c-43 71 -64 140 -64 206c0 110 42 204 126 282c84 77 185 116 304 116c125 0 230 -42 315 -127l85 -95l-216 -192l-84 95c-26 29 -59 43 -100 43c-36 0 -67 -12 -92 -36c-25 -23 -38 -52 -38 -85c0 -30 10 -56 31 -79l359 -402
c69 103 103 224 103 364h277c0 -208 -65 -398 -196 -571z" />
    <glyph glyph-name="quotesingle" unicode="'" horiz-adv-x="577" 
d="M142 1434h293l-23 -452h-247z" />
    <glyph glyph-name="parenleft" unicode="(" horiz-adv-x="645" 
d="M311 1713h276c-39 -67 -79 -158 -119 -275c-79 -233 -118 -473 -118 -720c0 -248 39 -488 118 -721c40 -117 80 -208 119 -275h-276c-43 67 -87 158 -130 275c-87 233 -130 473 -130 721c0 136 13 271 40 406c22 107 52 212 90 314c43 117 87 208 130 275z" />
    <glyph glyph-name="parenright" unicode=")" horiz-adv-x="645" 
d="M59 1713h276c43 -67 87 -158 130 -275c38 -102 68 -207 89 -314c27 -135 41 -270 41 -406c0 -248 -43 -488 -130 -721c-43 -117 -87 -208 -130 -275h-276c39 67 79 158 118 275c79 233 119 473 119 721c0 247 -40 487 -119 720c-39 117 -79 208 -118 275z" />
    <glyph glyph-name="asterisk" unicode="*" horiz-adv-x="781" 
d="M290 1514h201l-6 -218l204 74l62 -192l-208 -62l133 -170l-163 -118l-122 178l-122 -178l-163 118l132 170l-208 62l62 191l204 -73z" />
    <glyph glyph-name="plus" unicode="+" horiz-adv-x="897" 
d="M316 1026h265v-308h309v-266h-309v-309h-265v309h-309v266h309v308z" />
    <glyph glyph-name="comma" unicode="," horiz-adv-x="410" 
d="M383 158v-23c0 -94 -43 -185 -129 -272c-43 -43 -85 -78 -128 -103l-74 106c33 23 64 49 94 78l33 35l22 26c-33 8 -61 25 -84 51c-23 27 -34 58 -34 93c0 41 14 76 43 105c28 30 62 45 103 46s76 -13 106 -40c29 -28 45 -62 48 -102z" />
    <glyph glyph-name="hyphen" unicode="-" horiz-adv-x="1146" 
d="M181 448v274h781v-274h-781z" />
    <glyph glyph-name="hyphen" unicode="&#xad;" horiz-adv-x="1146" 
d="M181 448v274h781v-274h-781z" />
    <glyph glyph-name="period" unicode="." horiz-adv-x="474" 
d="M344 44c-29 -29 -65 -44 -106 -44s-77 15 -106 44s-44 65 -44 106s15 77 44 106s65 44 106 44s77 -15 106 -44s44 -65 44 -106s-15 -77 -44 -106z" />
    <glyph glyph-name="slash" unicode="/" horiz-adv-x="1228" 
d="M913 1708h315l-913 -1995h-315z" />
    <glyph glyph-name="zero" unicode="0" horiz-adv-x="1639" 
d="M646 306c55 -23 113 -35 174 -35s119 12 174 35c55 25 102 59 140 103c70 81 105 183 105 308s-35 227 -105 308c-38 44 -85 78 -140 102s-113 36 -174 36s-119 -12 -174 -36s-102 -58 -140 -102c-71 -81 -106 -183 -106 -308s35 -227 106 -308c38 -44 85 -78 140 -103z
M532 1380c91 36 187 54 288 54s196 -18 287 -54c91 -35 169 -85 235 -150c67 -65 118 -142 154 -231c37 -89 55 -183 55 -282s-18 -193 -55 -282c-36 -89 -87 -166 -154 -231c-66 -65 -144 -115 -235 -151c-91 -35 -186 -53 -287 -53s-197 18 -288 53
c-90 36 -168 86 -235 151c-66 65 -117 142 -153 231c-37 89 -55 183 -55 282s18 193 55 282c36 89 87 166 153 231c67 65 145 115 235 150z" />
    <glyph glyph-name="one" unicode="1" horiz-adv-x="717" 
d="M21 1435h510v-1435h-299v1158h-211v277z" />
    <glyph glyph-name="two" unicode="2" horiz-adv-x="1253" 
d="M413 276h717v-276h-1017v276c1 99 38 186 113 261c53 54 136 108 247 163c17 9 39 19 66 32l33 16l32 15c49 24 88 44 115 61c36 22 63 44 81 65c21 25 31 51 31 78c0 28 -4 52 -12 71c-7 18 -19 37 -37 57c-19 21 -43 37 -72 48c-27 10 -57 15 -89 15
c-31 0 -60 -6 -87 -18c-28 -11 -51 -28 -70 -50c-27 -31 -44 -69 -51 -116h-300c4 62 18 120 43 175s59 103 101 144c46 45 101 79 164 104s130 37 200 37s137 -12 200 -37c63 -24 117 -59 164 -104c48 -47 84 -95 107 -145c25 -54 38 -114 38 -180
c0 -90 -37 -170 -112 -239c-51 -47 -133 -99 -246 -156l-33 -17l-33 -16l-65 -32c-48 -25 -86 -47 -115 -67c-75 -51 -112 -106 -113 -165z" />
    <glyph glyph-name="three" unicode="3" horiz-adv-x="1278" 
d="M708 901c139 -9 250 -48 333 -119c103 -88 154 -195 154 -320c0 -133 -51 -243 -154 -330c-103 -88 -232 -132 -387 -132s-284 44 -387 132s-154 198 -154 331h299c4 -49 24 -90 60 -121c47 -41 107 -62 182 -62s135 20 181 61c41 36 61 82 61 137s-20 101 -61 137
c-14 13 -30 24 -47 34c-23 13 -48 23 -74 30c-70 19 -145 12 -224 -19l-160 203l362 297h-580v275h946v-275z" />
    <glyph glyph-name="four" unicode="4" horiz-adv-x="1208" 
d="M649 1434h299v-877h212v-277h-212v-280h-299v280h-648v277zM649 997l-330 -440h330v440z" />
    <glyph glyph-name="five" unicode="5" horiz-adv-x="1303" 
d="M676 947c147 0 276 -47 387 -142c49 -41 87 -93 115 -154c27 -61 40 -123 40 -188c0 -133 -52 -243 -155 -331s-232 -132 -387 -132s-285 44 -388 133c-103 87 -155 198 -155 331h300c5 -49 25 -90 61 -122c47 -41 107 -62 182 -62s135 21 182 62c41 36 61 82 61 137
c0 59 -20 106 -61 142c-50 45 -111 67 -182 67h-543v746h951v-277h-659v-210h251z" />
    <glyph glyph-name="six" unicode="6" horiz-adv-x="1125" 
d="M550 277c66 0 119 22 159 67c36 40 54 91 54 152s-18 111 -54 151c-40 45 -93 68 -159 68s-119 -23 -160 -68c-35 -40 -53 -90 -53 -151s18 -112 53 -152c41 -45 94 -67 160 -67zM553 971c146 0 267 -46 364 -138s145 -208 145 -347s-48 -255 -145 -347
c-97 -93 -218 -139 -364 -139c-147 0 -268 46 -365 139c-91 86 -139 194 -144 324l-1 23c0 33 3 65 10 97c23 147 102 310 239 487c101 131 198 253 290 364h345z" />
    <glyph glyph-name="seven" unicode="7" horiz-adv-x="1199" 
d="M598 0h-300c0 134 25 277 75 428c39 121 94 244 163 371c80 144 160 264 239 360h-691v275h1112v-138c-99 -118 -199 -260 -299 -427c-87 -147 -156 -286 -206 -418c-62 -166 -93 -316 -93 -451z" />
    <glyph glyph-name="eight" unicode="8" horiz-adv-x="1265" 
d="M633 274c73 0 133 18 178 55c39 32 59 73 59 122s-20 90 -59 122c-45 37 -105 55 -178 55s-132 -18 -177 -55c-40 -32 -60 -73 -60 -122s20 -90 60 -122c45 -37 104 -55 177 -55zM633 1160c-61 0 -111 -15 -148 -44c-33 -27 -50 -60 -50 -100s17 -73 50 -99
c37 -30 87 -45 148 -45s110 15 148 45c33 26 49 59 49 99s-16 73 -49 100c-38 29 -87 44 -148 44zM1000 751l13 -9c104 -84 156 -187 156 -310c0 -124 -51 -227 -152 -309c-102 -82 -230 -123 -384 -123s-282 41 -383 123c-102 82 -153 185 -153 309c0 123 52 226 156 310
l13 9l14 10c-92 77 -138 170 -138 277c0 113 47 208 140 283s210 113 351 113s258 -38 351 -113s140 -170 140 -283c0 -107 -46 -200 -138 -277z" />
    <glyph glyph-name="nine" unicode="9" horiz-adv-x="1124" 
d="M575 1158c-65 0 -118 -23 -159 -68c-36 -39 -54 -90 -54 -151s18 -111 54 -151c41 -45 94 -68 159 -68c66 0 119 23 160 68c35 40 53 90 53 151s-18 112 -53 151c-41 45 -94 68 -160 68zM572 464c-146 0 -267 46 -364 138s-145 208 -145 347s48 255 145 347
s218 138 365 138c146 0 267 -46 364 -138c91 -86 139 -194 145 -324v-23c0 -33 -3 -65 -9 -98c-23 -147 -103 -309 -240 -486c-101 -131 -198 -253 -290 -365h-344z" />
    <glyph glyph-name="colon" unicode=":" horiz-adv-x="513" 
d="M363 718c-29 -29 -65 -44 -106 -44s-77 15 -106 44s-44 65 -44 106s15 77 44 106s65 44 106 44s77 -15 106 -44s44 -65 44 -106s-15 -77 -44 -106zM363 44c-29 -29 -65 -44 -106 -44s-77 15 -106 44s-44 65 -44 106s15 77 44 106s65 44 106 44s77 -15 106 -44
s44 -65 44 -106s-15 -77 -44 -106z" />
    <glyph glyph-name="semicolon" unicode=";" horiz-adv-x="431" 
d="M387 158v-23c0 -51 -13 -102 -40 -153c-21 -41 -51 -80 -88 -119c-43 -43 -85 -78 -128 -103l-75 106c33 23 64 49 95 78l33 35l22 26c-34 8 -62 25 -84 52c-23 27 -34 57 -34 92c-1 41 13 77 42 106s63 44 104 45s76 -12 106 -40c29 -27 45 -61 47 -102zM343 718
c-29 -29 -65 -44 -106 -44s-77 15 -106 44s-44 65 -44 106s15 77 44 106s65 44 106 44s77 -15 106 -44s44 -65 44 -106s-15 -77 -44 -106z" />
    <glyph glyph-name="semicolon" unicode="&#x37e;" horiz-adv-x="431" 
d="M387 158v-23c0 -51 -13 -102 -40 -153c-21 -41 -51 -80 -88 -119c-43 -43 -85 -78 -128 -103l-75 106c33 23 64 49 95 78l33 35l22 26c-34 8 -62 25 -84 52c-23 27 -34 57 -34 92c-1 41 13 77 42 106s63 44 104 45s76 -12 106 -40c29 -27 45 -61 47 -102zM343 718
c-29 -29 -65 -44 -106 -44s-77 15 -106 44s-44 65 -44 106s15 77 44 106s65 44 106 44s77 -15 106 -44s44 -65 44 -106s-15 -77 -44 -106z" />
    <glyph glyph-name="less" unicode="&#x3c;" horiz-adv-x="959" 
d="M856 1153v-301l-546 -267l546 -267v-301l-855 417h-1v302h1z" />
    <glyph glyph-name="equal" unicode="=" horiz-adv-x="1167" 
d="M181 643v247h900v-247h-900zM181 279v248h900v-248h-900z" />
    <glyph glyph-name="greater" unicode="&#x3e;" horiz-adv-x="1037" 
d="M181 852v301l855 -417h1v-302h-1l-855 -417v301l547 267z" />
    <glyph glyph-name="question" unicode="?" horiz-adv-x="992" 
d="M594 44c29 29 44 65 44 106s-15 77 -44 106s-65 44 -106 44s-77 -15 -106 -44s-44 -65 -44 -106s15 -77 44 -106s65 -44 106 -44s77 15 106 44zM488 1434c137 0 252 -44 343 -131c89 -85 133 -194 133 -328c0 -58 -16 -115 -48 -171c-25 -45 -58 -85 -99 -121
c-15 -15 -38 -33 -67 -54l-17 -11l-16 -12l-30 -26c-43 -41 -64 -96 -64 -165h-270c0 118 38 217 114 298c13 15 29 29 46 44c11 10 26 22 44 36c36 27 58 46 66 55c30 35 45 78 45 127c0 51 -15 93 -45 126c-34 38 -79 57 -135 57c-55 0 -100 -19 -135 -57
c-30 -33 -45 -75 -45 -126h-299c0 132 46 241 137 328s205 131 342 131z" />
    <glyph glyph-name="at" unicode="@" horiz-adv-x="1832" 
d="M777 594c31 -31 69 -47 113 -47c45 0 83 16 114 47c31 32 47 71 47 118s-16 86 -47 118s-69 48 -114 48c-44 0 -82 -16 -113 -48s-47 -71 -47 -118s16 -86 47 -118zM333 1302c164 162 361 243 591 243s427 -81 592 -244s247 -358 247 -586c0 -137 -28 -256 -84 -358
c-65 -120 -155 -180 -269 -180c-74 0 -142 22 -204 67c-51 38 -92 86 -122 143c-68 -56 -138 -84 -211 -84c-119 0 -217 35 -293 104c-82 75 -123 176 -123 305s41 230 123 305c76 69 174 104 293 104c63 0 124 -20 185 -59v61h266v-578c0 -40 10 -71 29 -94
c16 -19 35 -29 58 -29c52 0 88 35 109 106c8 27 13 59 16 96c3 27 4 57 4 91c0 171 -60 317 -179 436s-265 179 -437 179s-317 -60 -436 -179s-179 -265 -179 -436c0 -172 60 -318 179 -437s265 -179 436 -179c91 0 181 22 269 65l100 -194c-116 -57 -239 -86 -369 -86
c-230 0 -427 81 -591 243c-165 163 -248 359 -248 588s83 424 248 587z" />
    <glyph glyph-name="A" unicode="A" horiz-adv-x="1483" 
d="M594 1434h296l568 -1434h-295l-87 217h-669l-86 -217h-296zM742 1061l-228 -573h455z" />
    <glyph glyph-name="B" unicode="B" horiz-adv-x="1423" 
d="M480 276h392c30 0 60 6 90 19c60 26 90 71 90 134c0 64 -30 109 -90 134c-30 13 -60 19 -89 19h-393v-306zM758 1157h-278v-305h299c15 1 30 4 45 9c19 6 37 14 52 24c41 27 61 66 61 119c0 63 -30 108 -90 134c-29 13 -59 19 -89 19zM1182 871c-14 -32 -34 -65 -61 -98
c65 -36 116 -78 153 -127c47 -63 71 -135 71 -217c0 -179 -72 -304 -217 -375c-73 -36 -145 -54 -218 -54h-729v1433h595c73 0 145 -18 217 -54c145 -71 217 -196 217 -375c0 -46 -9 -90 -28 -133z" />
    <glyph glyph-name="C" unicode="C" horiz-adv-x="1576" 
d="M1229 591l285 -88c-33 -117 -91 -216 -174 -297c-67 -65 -145 -116 -235 -152c-91 -36 -186 -54 -287 -54s-196 18 -287 53c-91 36 -169 86 -236 151c-66 65 -117 142 -153 231c-37 89 -55 183 -55 282s18 194 55 283c36 89 87 166 153 231c67 65 145 115 236 150
c91 36 186 54 287 54s196 -18 287 -54c90 -36 168 -87 235 -152c83 -81 141 -180 174 -298l-285 -87c-19 71 -50 132 -95 183c-38 44 -85 78 -141 102c-55 23 -113 35 -175 35c-61 0 -119 -12 -174 -36s-102 -58 -140 -102c-71 -81 -106 -184 -106 -309s35 -227 106 -308
c38 -44 85 -78 140 -102s113 -36 174 -36c62 0 120 12 175 35c56 24 103 58 141 102c45 51 76 112 95 183z" />
    <glyph glyph-name="D" unicode="D" horiz-adv-x="1517" 
d="M884 306c55 24 102 58 140 102c71 81 106 184 106 308c0 125 -35 228 -106 309c-38 44 -85 78 -140 102s-113 36 -174 36h-230v-893h230c61 0 119 12 174 36zM997 1379c91 -35 169 -85 235 -150c67 -65 118 -142 154 -231c37 -89 55 -183 55 -282s-18 -192 -55 -281
c-36 -89 -87 -166 -154 -231c-66 -65 -144 -115 -235 -151c-91 -35 -186 -53 -287 -53h-529v1433h529c101 0 196 -18 287 -54z" />
    <glyph glyph-name="E" unicode="E" horiz-adv-x="1215" 
d="M181 1434h1009v-276h-709v-236h528v-276h-528v-370h709v-276h-1009v1434z" />
    <glyph glyph-name="F" unicode="F" horiz-adv-x="1190" 
d="M181 1434h1009v-276h-709v-236h528v-276h-528v-646h-300v1434z" />
    <glyph glyph-name="G" unicode="G" horiz-adv-x="1606" 
d="M820 922h704c19 -66 28 -134 28 -205c0 -99 -18 -193 -55 -282c-36 -89 -87 -166 -154 -231c-66 -65 -144 -115 -235 -151c-91 -35 -187 -53 -288 -53s-196 18 -287 53c-91 36 -169 86 -236 151c-66 65 -117 142 -153 231c-37 89 -55 183 -55 282s18 194 55 283
c36 89 87 166 153 231c67 65 145 115 236 150c91 36 186 54 287 54c159 0 302 -42 427 -126l-177 -224c-73 53 -156 79 -250 79c-61 0 -119 -12 -174 -36s-102 -58 -140 -102c-71 -81 -106 -184 -106 -309s35 -227 106 -308c38 -44 85 -78 140 -102s113 -36 174 -36
s120 12 175 36s102 58 140 102c55 63 88 142 101 237h-416v276z" />
    <glyph glyph-name="H" unicode="H" horiz-adv-x="1606" 
d="M1123 1434h300v-1434h-300v645h-643v-645h-299v1434h299v-512h643v512z" />
    <glyph glyph-name="I" unicode="I" horiz-adv-x="670" 
d="M181 0v1434h300v-1434h-300z" />
    <glyph glyph-name="J" unicode="J" horiz-adv-x="839" 
d="M398 1434h299v-965c0 -130 -46 -241 -137 -332s-202 -137 -332 -137c-81 0 -157 20 -228 60l146 261c25 -14 53 -21 82 -21c47 0 87 17 120 50s50 73 50 120v964z" />
    <glyph glyph-name="K" unicode="K" horiz-adv-x="1487" 
d="M926 1435h356l-429 -454l571 -981h-324l-448 769l-171 -182v-587h-300v1435h300v-471z" />
    <glyph glyph-name="L" unicode="L" horiz-adv-x="1190" 
d="M181 1435h300v-1158h709v-277h-1009v1435z" />
    <glyph glyph-name="M" unicode="M" horiz-adv-x="1906" 
d="M1589 1434h134v-1434h-269v906l-493 -536l-493 536v-906h-287v1434h151l629 -708z" />
    <glyph glyph-name="N" unicode="N" horiz-adv-x="1677" 
d="M1194 1433h300v-1433h-150l-864 909v-909h-299v1433h150l863 -909v909z" />
    <glyph glyph-name="O" unicode="O" horiz-adv-x="1639" 
d="M646 306c55 -23 113 -35 174 -35s119 12 174 35c55 25 102 59 140 103c70 81 105 183 105 308s-35 227 -105 308c-38 44 -85 78 -140 102s-113 36 -174 36s-119 -12 -174 -36s-102 -58 -140 -102c-71 -81 -106 -183 -106 -308s35 -227 106 -308c38 -44 85 -78 140 -103z
M532 1380c91 36 187 54 288 54s196 -18 287 -54c91 -35 169 -85 235 -150c67 -65 118 -142 154 -231c37 -89 55 -183 55 -282s-18 -193 -55 -282c-36 -89 -87 -166 -154 -231c-66 -65 -144 -115 -235 -151c-91 -35 -186 -53 -287 -53s-197 18 -288 53
c-90 36 -168 86 -235 151c-66 65 -117 142 -153 231c-37 89 -55 183 -55 282s18 193 55 282c36 89 87 166 153 231c67 65 145 115 235 150z" />
    <glyph glyph-name="P" unicode="P" horiz-adv-x="1345" 
d="M480 851h393c29 0 59 6 89 19c26 11 47 26 62 45c19 24 28 54 28 89c0 63 -30 108 -90 133c-30 13 -60 20 -90 20h-392v-306zM181 1433h729c73 0 145 -18 218 -54c145 -71 217 -196 217 -375c0 -97 -23 -179 -68 -245c-37 -53 -87 -94 -150 -125
c-72 -35 -144 -53 -217 -53h-430v-581h-299v1433z" />
    <glyph glyph-name="Q" unicode="Q" horiz-adv-x="1615" 
d="M354 717c0 -125 35 -227 106 -308c38 -44 85 -78 140 -102s113 -36 174 -36s119 12 174 36s102 58 140 102c71 81 106 183 106 308s-35 228 -106 309c-38 44 -85 78 -140 102s-113 36 -174 36s-119 -12 -174 -36s-102 -58 -140 -102c-71 -81 -106 -184 -106 -309z
M1450 999c37 -89 55 -183 55 -282c0 -190 -61 -352 -183 -486l173 -233l-241 -178l-177 240c-95 -40 -196 -60 -303 -60c-101 0 -197 18 -288 54c-90 35 -168 85 -235 150c-66 65 -117 142 -153 231c-37 89 -55 183 -55 282s18 193 55 282c36 89 87 166 153 231
c67 65 145 116 235 151c91 35 187 53 288 53s196 -18 287 -53s169 -86 235 -151c67 -65 118 -142 154 -231z" />
    <glyph glyph-name="R" unicode="R" horiz-adv-x="1510" 
d="M480 1157v-306h393c29 0 59 6 89 19c26 11 47 26 62 45c19 24 28 54 28 89c0 63 -30 108 -90 133c-30 13 -60 20 -90 20h-392zM1422 0h-336l-340 581h-266v-581h-299v1433h729c73 0 145 -18 218 -54c145 -71 217 -196 217 -375c0 -113 -31 -206 -93 -277
c-47 -53 -109 -92 -186 -118z" />
    <glyph glyph-name="S" unicode="S" horiz-adv-x="1313" 
d="M662 864c15 -2 24 -3 27 -4s8 -1 15 -2l10 -1l13 -2c25 -3 48 -7 70 -11c71 -13 133 -32 188 -56c173 -74 259 -191 259 -352c0 -149 -67 -263 -201 -342c-105 -63 -223 -94 -356 -94c-135 0 -267 35 -398 106c-45 24 -88 52 -131 83c-15 11 -29 23 -44 35
c-6 5 -12 9 -17 14l-7 6l-6 5l184 205c29 -30 69 -60 118 -91c99 -60 199 -90 300 -90c99 0 171 23 217 68c16 16 28 34 36 54c3 8 6 16 7 23s2 12 2 17c0 56 -44 99 -132 128c-28 9 -61 17 -99 24l-21 3l-18 3c-14 2 -22 3 -25 4c-2 0 -7 1 -14 2l-10 1l-13 2
c-23 3 -46 7 -68 11c-70 14 -133 33 -188 56c-174 73 -261 186 -261 337c0 181 83 307 250 376c53 22 112 37 176 46c21 2 41 4 61 5h18h9c81 0 158 -10 232 -30c102 -27 200 -74 293 -141l-170 -204c-59 45 -132 75 -220 92c-29 5 -58 9 -87 11c-10 1 -20 1 -29 1h-16
c-23 0 -45 -1 -65 -3c-28 -4 -52 -10 -73 -18c-55 -22 -83 -59 -83 -112c0 -59 43 -103 128 -133c28 -10 61 -18 99 -25l21 -4z" />
    <glyph glyph-name="T" unicode="T" horiz-adv-x="1299" 
d="M28 1435h1243v-277h-472v-1158h-300v1158h-471v277z" />
    <glyph glyph-name="U" unicode="U" horiz-adv-x="1521" 
d="M1082 1435h300v-778c0 -186 -55 -342 -165 -469c-54 -63 -123 -110 -206 -143c-77 -30 -161 -45 -251 -45c-89 0 -173 15 -250 45c-83 33 -152 80 -207 143c-109 127 -164 283 -164 469v778h300v-24v-740c0 -106 24 -195 72 -267c28 -42 65 -74 112 -97
c43 -20 89 -30 138 -30s95 10 138 30c47 23 84 55 112 97c47 72 71 161 71 267v764z" />
    <glyph glyph-name="V" unicode="V" horiz-adv-x="1517" 
d="M1168 1435h324l-580 -1435h-307l-581 1435h324l410 -1041z" />
    <glyph glyph-name="W" unicode="W" horiz-adv-x="2090" 
d="M1689 1435h317l-383 -1435h-303l-275 1018l-275 -1018h-303l-383 1435h317l249 -940l248 940h294l248 -940z" />
    <glyph glyph-name="X" unicode="X" horiz-adv-x="1644" 
d="M1137 1436h346l-488 -678l546 -758h-346l-373 517l-373 -517h-346l546 758l-488 678h346l315 -437z" />
    <glyph glyph-name="Y" unicode="Y" horiz-adv-x="1334" 
d="M981 1433h340l-505 -728v-705h-299v705l-504 728h340l314 -464z" />
    <glyph glyph-name="Z" unicode="Z" horiz-adv-x="1468" 
d="M175 1435h1116v-138l-705 -1020h705v-277h-1116v138l705 1020h-705v277z" />
    <glyph glyph-name="bracketleft" unicode="[" horiz-adv-x="873" 
d="M181 1707h571v-276h-286v-1442h286v-276h-571v1994z" />
    <glyph glyph-name="backslash" unicode="\" horiz-adv-x="1228" 
d="M0 1708h315l913 -1995h-315z" />
    <glyph glyph-name="bracketright" unicode="]" horiz-adv-x="874" 
d="M118 1707h571v-1994h-571v276h285v1442h-285v276z" />
    <glyph glyph-name="asciicircum" unicode="^" horiz-adv-x="1014" 
 />
    <glyph glyph-name="underscore" unicode="_" 
 />
    <glyph glyph-name="grave" unicode="`" 
 />
    <glyph glyph-name="braceleft" unicode="{" horiz-adv-x="859" 
d="M120 880c10 9 19 21 27 38c10 22 15 45 15 69v67v68v144c0 115 43 214 129 297c45 43 93 76 144 99c73 32 160 48 259 48v-281c-85 0 -150 -21 -194 -64c-18 -17 -31 -37 -38 -60c-2 -7 -4 -15 -5 -24l-1 -9v-6v-71l-1 -71c0 -49 -1 -89 -2 -120c-3 -45 -8 -84 -15 -117
c-17 -84 -50 -141 -98 -170c48 -29 81 -86 98 -170c7 -33 12 -72 15 -117c1 -31 2 -71 2 -120c1 -55 1 -103 1 -142v-6l1 -9c1 -8 2 -16 5 -24c7 -23 20 -42 38 -59c44 -43 109 -64 194 -64v-282c-99 0 -186 16 -259 48c-51 23 -99 56 -144 99c-86 83 -129 182 -129 297v144
v36v100c0 23 -5 46 -15 68c-8 17 -17 30 -27 39c-9 9 -27 15 -53 20c-21 4 -40 6 -59 6v272c19 0 38 2 59 6c26 5 44 12 53 21z" />
    <glyph glyph-name="bar" unicode="|" horiz-adv-x="657" 
d="M181 -287v1995h286v-1995h-286z" />
    <glyph glyph-name="braceright" unicode="}" horiz-adv-x="855" 
d="M709 918c8 -17 17 -29 26 -38c10 -9 28 -16 53 -21c21 -4 40 -6 59 -6v-272c-19 0 -38 -2 -59 -6c-25 -5 -43 -11 -53 -20c-9 -9 -18 -22 -26 -39c-10 -22 -15 -45 -15 -68v-100v-36c-1 -66 -1 -114 -1 -144c0 -115 -43 -214 -129 -297c-45 -43 -93 -76 -144 -99
c-73 -32 -160 -48 -259 -48v282c86 0 151 21 195 64c17 17 30 36 37 59c3 8 5 16 6 24l1 9v6v142c0 49 1 89 3 120c3 45 7 84 14 117c17 84 50 141 99 170c-49 29 -82 86 -99 170c-7 33 -11 72 -14 117c-2 31 -3 71 -3 120v71v71v6l-1 9c-1 9 -3 17 -6 24
c-7 23 -20 43 -37 60c-44 43 -109 64 -195 64v281c99 0 186 -16 259 -48c51 -23 99 -56 144 -99c86 -83 129 -182 129 -297l1 -144v-68v-67c0 -24 5 -47 15 -69z" />
    <glyph glyph-name="asciitilde" unicode="~" horiz-adv-x="1052" 
d="M894 849v-239c-107 -27 -193 -40 -258 -37c-25 1 -50 4 -73 10l-28 9l-27 10c-45 17 -85 26 -120 26c-57 1 -134 -14 -232 -45v239c107 27 193 40 257 37c26 -1 50 -4 73 -10l29 -9l27 -10c45 -17 85 -26 119 -26c57 -1 135 14 233 45z" />
    <glyph glyph-name="dieresis" unicode="&#xa8;" 
 />
    <glyph glyph-name="copyright" unicode="&#xa9;" horiz-adv-x="1892" 
d="M464 1344c-134 -133 -201 -294 -201 -483c0 -188 67 -349 201 -482c133 -134 294 -201 482 -201c189 0 350 67 483 201c133 133 200 294 200 482c0 189 -67 350 -200 483c-133 134 -294 201 -483 201c-188 0 -349 -67 -482 -201zM611 68c-103 43 -195 105 -274 184
s-141 171 -184 274c-45 107 -68 218 -68 335s23 229 68 336c43 103 105 194 184 273c79 80 171 142 274 185c107 45 218 68 335 68s229 -23 336 -68c103 -43 194 -105 273 -185c80 -79 142 -170 185 -273c45 -107 68 -219 68 -336s-23 -228 -68 -335
c-43 -103 -105 -195 -185 -274c-79 -79 -170 -141 -273 -184c-107 -45 -219 -68 -336 -68s-228 23 -335 68zM964 564c87 0 157 30 210 91c29 34 50 75 63 122l189 -58c-22 -78 -60 -144 -115 -198c-93 -91 -208 -136 -347 -136c-147 0 -267 45 -359 135
c-93 91 -139 204 -139 341s46 250 139 341s212 136 359 136c139 0 254 -46 347 -137c55 -53 93 -119 115 -197l-189 -59c-13 47 -34 88 -63 122c-53 61 -123 91 -210 91c-94 0 -168 -31 -221 -92c-47 -54 -70 -122 -70 -205s23 -151 70 -205c53 -61 127 -92 221 -92z" />
    <glyph glyph-name="guillemotleft" unicode="&#xab;" horiz-adv-x="1253" 
d="M331 992h308l-277 -407l277 -407h-308l-268 407zM807 992h308l-277 -407l277 -407h-308l-268 407z" />
    <glyph glyph-name="logicalnot" unicode="&#xac;" 
 />
    <glyph glyph-name="registered" unicode="&#xae;" horiz-adv-x="1892" 
d="M464 1344c-134 -133 -201 -294 -201 -483c0 -188 67 -349 201 -482c133 -134 294 -201 482 -201c189 0 350 67 483 201c133 133 200 294 200 482c0 189 -67 350 -200 483c-133 134 -294 201 -483 201c-188 0 -349 -67 -482 -201zM611 68c-103 43 -195 105 -274 184
s-141 171 -184 274c-45 107 -68 218 -68 335s23 229 68 336c43 103 105 194 184 273c79 80 171 142 274 185c107 45 218 68 335 68s229 -23 336 -68c103 -43 194 -105 273 -185c80 -79 142 -170 185 -273c45 -107 68 -219 68 -336s-23 -228 -68 -335
c-43 -103 -105 -195 -185 -274c-79 -79 -170 -141 -273 -184c-107 -45 -219 -68 -336 -68s-228 23 -335 68zM754 1149v-203h261c20 0 40 4 60 13c39 17 59 46 59 89c0 42 -20 72 -59 89c-20 8 -40 12 -60 12h-261zM1380 381h-223l-226 386h-177v-386h-199v952h485
c48 0 96 -12 145 -35c96 -48 144 -131 144 -250c0 -75 -21 -137 -62 -184c-31 -35 -72 -62 -123 -79z" />
    <glyph glyph-name="overscore" unicode="&#xaf;" horiz-adv-x="670" 
 />
    <glyph glyph-name="degree" unicode="&#xb0;" 
 />
    <glyph glyph-name="plusminus" unicode="&#xb1;" horiz-adv-x="1014" 
 />
    <glyph glyph-name="paragraph" unicode="&#xb6;" 
 />
    <glyph glyph-name="middot" unicode="&#xb7;" 
 />
    <glyph glyph-name="middot" unicode="&#x2219;" 
 />
    <glyph glyph-name="guillemotright" unicode="&#xbb;" horiz-adv-x="1253" 
d="M614 992h308l268 -407l-268 -407h-308l277 407zM138 992h308l268 -407l-268 -407h-308l277 407z" />
    <glyph glyph-name="multiply" unicode="&#xd7;" horiz-adv-x="966" 
d="M483 773l218 218l188 -188l-218 -218l218 -218l-188 -188l-218 218l-218 -218l-188 188l218 218l-218 218l188 188z" />
    <glyph glyph-name="hungarumlaut" unicode="&#x2dd;" 
 />
    <glyph glyph-name="endash" unicode="&#x2013;" horiz-adv-x="1264" 
d="M181 448v274h899v-274h-899z" />
    <glyph glyph-name="emdash" unicode="&#x2014;" 
 />
    <glyph glyph-name="quoteleft" unicode="&#x2018;" horiz-adv-x="370" 
d="M29 1162v21c0 85 38 166 113 245c37 39 75 70 113 92l65 -95c-29 -20 -56 -43 -83 -70l-29 -31l-19 -24c29 -7 54 -22 74 -46s30 -52 30 -83c0 -37 -13 -68 -38 -95s-55 -40 -91 -41s-67 11 -93 36c-27 25 -41 55 -42 91z" />
    <glyph glyph-name="quoteright" unicode="&#x2019;" horiz-adv-x="368" 
d="M341 1393v-21c0 -84 -38 -165 -113 -244c-37 -39 -75 -70 -113 -93l-65 95c29 21 56 44 83 71c10 10 20 20 29 31c7 8 14 16 19 23c-29 7 -54 23 -74 46c-20 25 -30 53 -30 84c0 37 13 68 38 94c25 27 55 40 91 41s67 -11 93 -36c27 -25 41 -55 42 -91z" />
    <glyph glyph-name="quotesinglbase" unicode="&#x201a;" horiz-adv-x="369" 
d="M342 141v-21c0 -85 -38 -166 -113 -245c-37 -39 -75 -70 -113 -92l-65 95c29 21 56 44 83 71c10 10 20 20 29 31c7 8 14 16 19 23c-29 7 -54 23 -74 46c-20 25 -30 53 -30 84c0 37 13 68 38 94c25 27 55 40 91 41s67 -11 93 -36c27 -25 41 -55 42 -91z" />
    <glyph glyph-name="quotedblleft" unicode="&#x201c;" horiz-adv-x="785" 
d="M388 1162v21c0 85 38 166 113 245c37 39 75 70 113 92l65 -95c-28 -20 -55 -43 -82 -70l-30 -31l-19 -24c29 -7 54 -22 74 -46s30 -52 30 -83c0 -37 -12 -68 -37 -95s-56 -40 -92 -41s-67 11 -93 36s-40 55 -42 91zM91 1162v21c0 85 38 166 113 245c37 39 75 70 113 92
l65 -95c-29 -20 -56 -43 -83 -70l-29 -31l-19 -24c29 -7 54 -22 74 -46s30 -52 30 -83c0 -37 -13 -68 -38 -95s-55 -40 -91 -41s-67 11 -93 36c-27 25 -41 55 -42 91z" />
    <glyph glyph-name="quotedblright" unicode="&#x201d;" horiz-adv-x="782" 
d="M398 1393v-21c0 -84 -38 -165 -113 -244c-37 -39 -75 -70 -113 -93l-65 95c29 21 56 44 83 71c10 10 20 20 29 31c7 8 14 16 19 23c-29 7 -54 23 -74 46c-20 25 -30 53 -30 84c0 37 13 68 38 94c25 27 55 40 91 41s67 -11 93 -36c27 -25 41 -55 42 -91zM695 1393v-21
c0 -84 -38 -165 -113 -244c-37 -39 -75 -70 -113 -93l-65 95c29 21 56 44 83 71c10 10 20 20 29 31l20 23c-30 7 -55 23 -74 46c-21 25 -31 53 -31 84c0 37 13 68 38 94c25 27 55 40 91 41s67 -11 94 -36c26 -25 40 -55 41 -91z" />
    <glyph glyph-name="quotedblbase" unicode="&#x201e;" horiz-adv-x="784" 
d="M399 141v-21c0 -85 -38 -166 -113 -245c-37 -39 -75 -70 -113 -92l-65 95c29 21 56 44 83 71c10 10 20 20 29 31c7 8 14 16 19 23c-29 7 -54 23 -74 46c-20 25 -30 53 -30 84c0 37 13 68 38 94c25 27 55 40 91 41s67 -11 93 -36c27 -25 41 -55 42 -91zM696 141v-21
c0 -85 -38 -166 -113 -245c-37 -39 -75 -70 -113 -92l-65 95c29 21 56 44 83 71c10 10 20 20 29 31l20 23c-30 7 -55 23 -74 46c-21 25 -31 53 -31 84c0 37 13 68 38 94c25 27 55 40 91 41s67 -11 94 -36c26 -25 40 -55 41 -91z" />
    <glyph glyph-name="dagger" unicode="&#x2020;" 
 />
    <glyph glyph-name="daggerdbl" unicode="&#x2021;" 
 />
    <glyph glyph-name="bullet" unicode="&#x2022;" 
 />
    <glyph glyph-name="ellipsis" unicode="&#x2026;" 
 />
    <glyph glyph-name="guilsinglleft" unicode="&#x2039;" horiz-adv-x="693" 
d="M279 992h308l-277 -407l277 -407h-308l-268 407z" />
    <glyph glyph-name="guilsinglright" unicode="&#x203a;" horiz-adv-x="693" 
d="M106 992h308l268 -407l-268 -407h-308l277 407z" />
    <glyph glyph-name="fraction" unicode="&#x2044;" 
 />
    <glyph glyph-name="fraction" unicode="&#x2215;" 
 />
    <glyph glyph-name="uni2116" unicode="&#x2116;" horiz-adv-x="2568" 
d="M1196 1435h299v-1435h-150l-865 910v-910h-299v1435h150l865 -910v910zM1633 0v275h785v-275h-785zM2334 485c-83 -87 -185 -130 -308 -130s-226 43 -308 130c-83 87 -125 196 -125 328s41 241 124 328s186 130 309 130s225 -43 308 -130s124 -196 124 -328
s-41 -241 -124 -328zM2174 813c0 53 -12 98 -37 135c-27 41 -64 61 -111 61s-84 -20 -111 -61c-25 -37 -38 -82 -38 -135s13 -98 38 -135c27 -41 64 -61 111 -61s84 20 111 61c25 37 37 82 37 135z" />
    <glyph glyph-name="trademark" unicode="&#x2122;" 
 />
    <glyph glyph-name="uni0410" unicode="&#x410;" horiz-adv-x="1483" 
d="M594 1434h296l568 -1434h-295l-87 217h-669l-86 -217h-296zM742 1061l-228 -573h455z" />
    <glyph glyph-name="uni0411" unicode="&#x411;" horiz-adv-x="1443" 
d="M480 276h392c30 0 60 6 90 19c26 11 47 27 62 46c19 24 28 53 28 88s-9 65 -28 89c-15 19 -36 34 -62 45c-29 13 -59 19 -89 19h-393v-306zM480 852h430c73 0 145 -18 218 -53c63 -31 113 -72 149 -125c45 -66 68 -148 68 -245c0 -179 -72 -304 -217 -375
c-73 -36 -145 -54 -217 -54h-730v1433h1030v-276h-731v-305z" />
    <glyph glyph-name="uni0412" unicode="&#x412;" horiz-adv-x="1423" 
d="M480 276h392c30 0 60 6 90 19c60 26 90 71 90 134c0 64 -30 109 -90 134c-30 13 -60 19 -89 19h-393v-306zM758 1157h-278v-305h299c15 1 30 4 45 9c19 6 37 14 52 24c41 27 61 66 61 119c0 63 -30 108 -90 134c-29 13 -59 19 -89 19zM1182 871c-14 -32 -34 -65 -61 -98
c65 -36 116 -78 153 -127c47 -63 71 -135 71 -217c0 -179 -72 -304 -217 -375c-73 -36 -145 -54 -218 -54h-729v1433h595c73 0 145 -18 217 -54c145 -71 217 -196 217 -375c0 -46 -9 -90 -28 -133z" />
    <glyph glyph-name="uni0413" unicode="&#x413;" horiz-adv-x="1190" 
d="M481 0h-300v1435h1009v-277h-709v-1158z" />
    <glyph glyph-name="uni0414" unicode="&#x414;" horiz-adv-x="1758" 
d="M1141 1158h-416c0 -214 -20 -411 -61 -591c-15 -65 -33 -125 -52 -182c-7 -23 -15 -44 -23 -64l-19 -44h571v881zM1441 277h196v-572h-299v295h-957v-295h-300v572h169c18 28 35 64 52 107c23 59 43 129 60 210c47 219 70 499 70 841h1009v-1158z" />
    <glyph glyph-name="uni0415" unicode="&#x415;" horiz-adv-x="1215" 
d="M181 1434h1009v-276h-709v-236h528v-276h-528v-370h709v-276h-1009v1434z" />
    <glyph glyph-name="uni0416" unicode="&#x416;" horiz-adv-x="2396" 
d="M1792 1434h355l-429 -454l571 -980h-324l-447 768l-171 -181v-587h-297v587l-172 181l-447 -768h-324l571 980l-429 454h355l446 -471v471h297v-471z" />
    <glyph glyph-name="uni0417" unicode="&#x417;" horiz-adv-x="1308" 
d="M1145 1007c0 -91 -46 -176 -137 -254c62 -36 110 -77 144 -122c44 -57 66 -122 66 -195c0 -149 -67 -263 -200 -342c-105 -63 -224 -94 -357 -94c-134 0 -267 35 -398 106c-45 24 -88 52 -131 83c-15 11 -29 23 -44 35c-6 5 -12 9 -17 14l-7 6l-6 5l184 205
c29 -30 69 -60 118 -90c43 -27 88 -48 133 -63c56 -19 112 -28 167 -28c99 0 171 23 218 68c16 16 28 34 36 54c3 8 6 16 7 23s2 12 2 17c0 59 -47 102 -141 131c-35 11 -76 19 -121 24c-37 5 -72 7 -106 7h-182v264h182c22 0 47 2 75 7c36 6 69 14 98 25
c81 31 121 77 121 137c0 53 -28 90 -83 112c-21 8 -45 14 -73 17c-20 3 -42 4 -65 4h-17c-9 0 -19 0 -29 -1c-29 -2 -58 -6 -87 -11c-87 -17 -161 -48 -220 -93l-170 205c94 67 192 114 294 141c73 20 150 30 231 30h9h19c19 -1 39 -3 60 -5c65 -9 123 -24 176 -46
c167 -69 251 -195 251 -376z" />
    <glyph glyph-name="uni0418" unicode="&#x418;" horiz-adv-x="1677" 
d="M181 1433h300v-909l863 909h150v-1433h-299v909l-864 -909h-150v1433z" />
    <glyph glyph-name="uni0419" unicode="&#x419;" horiz-adv-x="1511" 
d="M1244 1435h150v-1435h-299v910l-865 -910h-150v1435h300v-910zM884 1873l200 -191l-321 -338l-200 191z" />
    <glyph glyph-name="uni041A" unicode="&#x41a;" horiz-adv-x="1487" 
d="M926 1435h356l-429 -454l571 -981h-324l-448 769l-171 -182v-587h-300v1435h300v-471z" />
    <glyph glyph-name="uni041B" unicode="&#x41b;" horiz-adv-x="1665" 
d="M442 1434h1040v-1433h-299v1157h-442v-689c0 -130 -46 -241 -137 -332s-202 -137 -331 -137c-81 0 -158 20 -229 60l146 261c25 -14 53 -21 82 -21c47 0 87 17 120 50s50 73 50 120v964z" />
    <glyph glyph-name="uni041C" unicode="&#x41c;" horiz-adv-x="1918" 
d="M1585 1433h150v-1433h-299v894l-478 -545l-478 545v-894h-299v1433h150l627 -717z" />
    <glyph glyph-name="uni041D" unicode="&#x41d;" horiz-adv-x="1606" 
d="M1123 1434h300v-1434h-300v645h-643v-645h-299v1434h299v-512h643v512z" />
    <glyph glyph-name="uni041E" unicode="&#x41e;" horiz-adv-x="1639" 
d="M645 306c55 -23 113 -35 174 -35s119 12 174 35c55 25 102 59 140 103c70 81 105 183 105 308s-35 227 -105 308c-38 44 -85 78 -140 102s-113 36 -174 36s-119 -12 -174 -36s-102 -58 -140 -102c-71 -81 -106 -183 -106 -308s35 -227 106 -308c38 -44 85 -78 140 -103z
M531 1380c91 36 187 54 288 54s196 -18 287 -54c91 -35 169 -85 235 -150c67 -65 118 -142 154 -231c37 -89 55 -183 55 -282s-18 -193 -55 -282c-36 -89 -87 -166 -154 -231c-66 -65 -144 -115 -235 -151c-91 -35 -186 -53 -287 -53s-197 18 -288 53
c-90 36 -168 86 -235 151c-66 65 -117 142 -153 231c-37 89 -55 183 -55 282s18 193 55 282c36 89 87 166 153 231c67 65 145 115 235 150z" />
    <glyph glyph-name="uni041F" unicode="&#x41f;" horiz-adv-x="1607" 
d="M181 1435h1243v-1435h-300v1158h-643v-1158h-300v1435z" />
    <glyph glyph-name="uni0420" unicode="&#x420;" horiz-adv-x="1345" 
d="M480 851h393c29 0 59 6 89 19c26 11 47 26 62 45c19 24 28 54 28 89c0 63 -30 108 -90 133c-30 13 -60 20 -90 20h-392v-306zM181 1433h729c73 0 145 -18 218 -54c145 -71 217 -196 217 -375c0 -97 -23 -179 -68 -245c-37 -53 -87 -94 -150 -125
c-72 -35 -144 -53 -217 -53h-430v-581h-299v1433z" />
    <glyph glyph-name="uni0421" unicode="&#x421;" horiz-adv-x="1576" 
d="M1229 591l285 -88c-33 -117 -91 -216 -174 -297c-67 -65 -145 -116 -235 -152c-91 -36 -186 -54 -287 -54s-196 18 -287 53c-91 36 -169 86 -236 151c-66 65 -117 142 -153 231c-37 89 -55 183 -55 282s18 194 55 283c36 89 87 166 153 231c67 65 145 115 236 150
c91 36 186 54 287 54s196 -18 287 -54c90 -36 168 -87 235 -152c83 -81 141 -180 174 -298l-285 -87c-19 71 -50 132 -95 183c-38 44 -85 78 -141 102c-55 23 -113 35 -175 35c-61 0 -119 -12 -174 -36s-102 -58 -140 -102c-71 -81 -106 -184 -106 -309s35 -227 106 -308
c38 -44 85 -78 140 -102s113 -36 174 -36c62 0 120 12 175 35c56 24 103 58 141 102c45 51 76 112 95 183z" />
    <glyph glyph-name="uni0422" unicode="&#x422;" horiz-adv-x="1299" 
d="M28 1435h1243v-277h-472v-1158h-300v1158h-471v277z" />
    <glyph glyph-name="uni0423" unicode="&#x423;" horiz-adv-x="1459" 
d="M1137 1435h322l-565 -1039c-72 -134 -137 -229 -195 -284c-79 -75 -172 -112 -279 -112c-81 0 -157 20 -229 60l146 262c26 -15 53 -22 82 -22c64 0 112 27 145 82l57 104l-516 949h322l355 -653z" />
    <glyph glyph-name="uni0424" unicode="&#x424;" horiz-adv-x="1663" 
d="M981 420c96 18 168 44 217 78c77 54 116 127 116 219c0 93 -39 166 -116 220c-49 34 -121 60 -217 78v-595zM349 717c0 -92 39 -165 117 -219c48 -34 120 -60 216 -78v595c-96 -18 -168 -44 -216 -78c-78 -54 -117 -127 -117 -220zM981 1292c175 -24 314 -74 415 -150
c70 -53 124 -116 162 -191c37 -74 56 -152 56 -234s-19 -160 -56 -233c-38 -75 -92 -139 -162 -192c-101 -76 -240 -126 -415 -149v-143h-299v143c-175 24 -313 74 -414 149c-70 53 -124 117 -162 192c-37 73 -56 151 -56 233c0 83 19 161 56 234c38 75 92 139 162 191
c101 76 239 126 414 150v143h299v-143z" />
    <glyph glyph-name="uni0425" unicode="&#x425;" horiz-adv-x="1644" 
d="M1137 1436h346l-488 -678l546 -758h-346l-373 517l-373 -517h-346l546 758l-488 678h346l315 -437z" />
    <glyph glyph-name="uni0426" unicode="&#x426;" horiz-adv-x="1624" 
d="M1001 1434h300v-1158h210v-571h-299v295h-1150v1434h300v-1158h639v1158z" />
    <glyph glyph-name="uni0427" unicode="&#x427;" horiz-adv-x="1351" 
d="M868 1434h300v-1434h-300v546c-101 -34 -209 -51 -324 -51c-172 0 -304 40 -396 119c-93 81 -140 198 -140 353v464h299v-414c0 -88 23 -152 69 -191c44 -37 113 -55 208 -55c105 0 200 20 284 60v603z" />
    <glyph glyph-name="uni0428" unicode="&#x428;" horiz-adv-x="2134" 
d="M1653 1433h299v-1433h-1771v1433h299v-1157h437v1157h299v-1157h437v1157z" />
    <glyph glyph-name="uni0429" unicode="&#x429;" horiz-adv-x="2169" 
d="M1529 1434h300v-1158h210v-571h-299v295h-1684v1434h299v-1158h438v1158h299v-1158h437v1158z" />
    <glyph glyph-name="uni042A" unicode="&#x42a;" horiz-adv-x="1484" 
d="M613 276h393c30 0 60 7 89 20c27 11 47 26 62 45c19 24 28 54 28 89s-9 65 -28 88c-15 19 -35 35 -62 46c-30 13 -60 19 -89 19l-393 1v-308zM613 852h431c72 0 144 -18 217 -53c145 -71 217 -194 217 -370c0 -179 -72 -304 -217 -375c-73 -36 -145 -54 -217 -54h-731
v1157h-210v276h510v-581z" />
    <glyph glyph-name="uni042B" unicode="&#x42b;" horiz-adv-x="1996" 
d="M480 276h393c30 0 60 7 90 20c26 11 46 26 61 45c19 24 28 54 28 89c0 63 -30 108 -89 134c-30 13 -60 19 -90 18l-393 1v-307zM480 852h431c72 0 144 -18 217 -53c63 -31 113 -72 149 -125c45 -66 68 -148 68 -245c0 -179 -72 -304 -217 -375c-72 -36 -144 -54 -217 -54
h-730v1433h299v-581zM1515 0v1433h299v-1433h-299z" />
    <glyph glyph-name="uni042C" unicode="&#x42c;" horiz-adv-x="1345" 
d="M873 582h-393v-306h392c30 0 60 7 90 20c60 25 90 70 90 133c0 35 -9 65 -28 89c-15 19 -36 34 -62 45c-30 13 -60 19 -89 19zM910 0h-729v1433h299v-581h430c73 0 145 -18 217 -53c63 -31 113 -72 150 -125c45 -66 68 -148 68 -245c0 -179 -72 -304 -217 -375
c-73 -36 -145 -54 -218 -54z" />
    <glyph glyph-name="uni042D" unicode="&#x42d;" horiz-adv-x="1576" 
d="M1045 1381c91 -35 169 -85 235 -150c67 -65 118 -142 154 -231c37 -89 55 -184 55 -283s-18 -193 -55 -282c-36 -89 -87 -166 -154 -231c-66 -65 -144 -115 -235 -151c-91 -35 -187 -53 -288 -53c-100 0 -196 18 -287 54c-90 36 -168 87 -234 152
c-83 81 -141 180 -174 297l285 88c19 -71 50 -132 95 -183c38 -44 85 -78 141 -102c55 -23 113 -35 174 -35s120 12 175 35c55 25 102 59 140 103c40 46 69 103 88 170h-588v276h588c-18 67 -47 124 -88 171c-38 44 -85 78 -140 102s-114 36 -175 36s-119 -12 -174 -35
c-56 -24 -103 -58 -141 -102c-45 -51 -76 -112 -95 -183l-285 87c33 118 91 217 174 298c66 65 144 116 234 152c91 36 187 54 287 54c101 0 197 -18 288 -54z" />
    <glyph glyph-name="uni042E" unicode="&#x42e;" horiz-adv-x="2220" 
d="M1563 307c55 24 101 58 138 102c69 81 104 184 104 309s-35 227 -104 308c-37 44 -83 78 -138 102c-53 24 -110 36 -171 36s-118 -12 -171 -36c-55 -24 -101 -58 -138 -102c-69 -81 -104 -183 -104 -308s35 -228 104 -309c37 -44 83 -78 138 -102c53 -24 110 -36 171 -36
c60 0 117 12 171 36zM1675 1382c89 -36 166 -86 231 -151s116 -142 152 -231c35 -89 53 -183 53 -282s-18 -194 -53 -283c-36 -89 -87 -166 -152 -231s-142 -115 -231 -150c-89 -36 -184 -54 -283 -54s-194 18 -283 53c-89 36 -166 86 -231 151c-101 101 -166 226 -193 375
h-204v-579h-300v1435h300v-580h204c27 149 92 274 193 375c65 65 142 116 231 151c89 36 184 54 283 54s194 -18 283 -53z" />
    <glyph glyph-name="uni042F" unicode="&#x42f;" horiz-adv-x="1512" 
d="M1030 851v306h-392c-30 0 -60 -7 -90 -20c-60 -25 -90 -70 -90 -133c0 -35 9 -65 28 -89c15 -19 36 -34 62 -45c30 -13 60 -19 89 -19h393zM424 0h-336l356 609c-77 26 -139 65 -186 118c-62 71 -93 164 -93 277c0 179 73 304 218 375c72 36 144 54 217 54h729v-1433
h-299v581h-266z" />
    <glyph glyph-name="uni0401" unicode="&#x401;" horiz-adv-x="1231" 
d="M138 1434h1009v-277h-710v-236h530v-275h-530v-371h710v-275h-1009v1434zM543 1615c-29 -29 -65 -44 -106 -44s-77 15 -106 44s-44 65 -44 106c0 42 15 78 44 107s65 43 106 43s77 -14 106 -43s44 -65 44 -107c0 -41 -15 -77 -44 -106zM955 1615
c-29 -29 -65 -44 -107 -44c-41 0 -77 15 -106 44s-44 65 -44 106c0 42 15 78 44 107s65 43 106 43c42 0 78 -14 107 -43s43 -65 43 -107c0 -41 -14 -77 -43 -106z" />
    <glyph glyph-name="uni20BD" unicode="&#x20bd;" horiz-adv-x="1482" 
d="M591 1161v-304h393c29 0 59 6 89 19c26 11 47 26 62 45c19 23 28 52 28 87c0 63 -30 108 -90 133c-30 13 -60 19 -90 20h-392zM1021 612h-430v-139h729v-237h-729v-236h-300v236h-211v237h211v139h-211v243h211v579h730c73 0 145 -18 218 -53c63 -31 113 -74 149 -127
c45 -66 68 -148 68 -246c0 -165 -72 -281 -217 -347c-73 -33 -145 -49 -218 -49z" />
    <glyph glyph-name="uni0430" unicode="&#x430;" horiz-adv-x="1483" 
d="M594 1434h296l568 -1434h-295l-87 217h-669l-86 -217h-296zM742 1061l-228 -573h455z" />
    <glyph glyph-name="uni0431" unicode="&#x431;" horiz-adv-x="1443" 
d="M480 276h392c30 0 60 6 90 19c26 11 47 27 62 46c19 24 28 53 28 88s-9 65 -28 89c-15 19 -36 34 -62 45c-29 13 -59 19 -89 19h-393v-306zM480 852h430c73 0 145 -18 218 -53c63 -31 113 -72 149 -125c45 -66 68 -148 68 -245c0 -179 -72 -304 -217 -375
c-73 -36 -145 -54 -217 -54h-730v1433h1030v-276h-731v-305z" />
    <glyph glyph-name="uni0432" unicode="&#x432;" horiz-adv-x="1423" 
d="M480 276h392c30 0 60 6 90 19c60 26 90 71 90 134c0 64 -30 109 -90 134c-30 13 -60 19 -89 19h-393v-306zM758 1157h-278v-305h299c15 1 30 4 45 9c19 6 37 14 52 24c41 27 61 66 61 119c0 63 -30 108 -90 134c-29 13 -59 19 -89 19zM1182 871c-14 -32 -34 -65 -61 -98
c65 -36 116 -78 153 -127c47 -63 71 -135 71 -217c0 -179 -72 -304 -217 -375c-73 -36 -145 -54 -218 -54h-729v1433h595c73 0 145 -18 217 -54c145 -71 217 -196 217 -375c0 -46 -9 -90 -28 -133z" />
    <glyph glyph-name="uni0433" unicode="&#x433;" horiz-adv-x="1190" 
d="M481 0h-300v1435h1009v-277h-709v-1158z" />
    <glyph glyph-name="uni0434" unicode="&#x434;" horiz-adv-x="1758" 
d="M1141 1158h-416c0 -214 -20 -411 -61 -591c-15 -65 -33 -125 -52 -182c-7 -23 -15 -44 -23 -64l-19 -44h571v881zM1441 277h196v-572h-299v295h-957v-295h-300v572h169c18 28 35 64 52 107c23 59 43 129 60 210c47 219 70 499 70 841h1009v-1158z" />
    <glyph glyph-name="uni0435" unicode="&#x435;" horiz-adv-x="1215" 
d="M181 1434h1009v-276h-709v-236h528v-276h-528v-370h709v-276h-1009v1434z" />
    <glyph glyph-name="uni0436" unicode="&#x436;" horiz-adv-x="2396" 
d="M1792 1434h355l-429 -454l571 -980h-324l-447 768l-171 -181v-587h-297v587l-172 181l-447 -768h-324l571 980l-429 454h355l446 -471v471h297v-471z" />
    <glyph glyph-name="uni0437" unicode="&#x437;" horiz-adv-x="1308" 
d="M1145 1007c0 -91 -46 -176 -137 -254c62 -36 110 -77 144 -122c44 -57 66 -122 66 -195c0 -149 -67 -263 -200 -342c-105 -63 -224 -94 -357 -94c-134 0 -267 35 -398 106c-45 24 -88 52 -131 83c-15 11 -29 23 -44 35c-6 5 -12 9 -17 14l-7 6l-6 5l184 205
c29 -30 69 -60 118 -90c43 -27 88 -48 133 -63c56 -19 112 -28 167 -28c99 0 171 23 218 68c16 16 28 34 36 54c3 8 6 16 7 23s2 12 2 17c0 59 -47 102 -141 131c-35 11 -76 19 -121 24c-37 5 -72 7 -106 7h-182v264h182c22 0 47 2 75 7c36 6 69 14 98 25
c81 31 121 77 121 137c0 53 -28 90 -83 112c-21 8 -45 14 -73 17c-20 3 -42 4 -65 4h-17c-9 0 -19 0 -29 -1c-29 -2 -58 -6 -87 -11c-87 -17 -161 -48 -220 -93l-170 205c94 67 192 114 294 141c73 20 150 30 231 30h9h19c19 -1 39 -3 60 -5c65 -9 123 -24 176 -46
c167 -69 251 -195 251 -376z" />
    <glyph glyph-name="uni0438" unicode="&#x438;" horiz-adv-x="1677" 
d="M181 1433h300v-909l863 909h150v-1433h-299v909l-864 -909h-150v1433z" />
    <glyph glyph-name="uni0439" unicode="&#x439;" horiz-adv-x="1511" 
d="M1244 1435h150v-1435h-299v910l-865 -910h-150v1435h300v-910zM884 1873l200 -191l-321 -338l-200 191z" />
    <glyph glyph-name="uni043A" unicode="&#x43a;" horiz-adv-x="1487" 
d="M926 1435h356l-429 -454l571 -981h-324l-448 769l-171 -182v-587h-300v1435h300v-471z" />
    <glyph glyph-name="uni043B" unicode="&#x43b;" horiz-adv-x="1665" 
d="M442 1434h1040v-1433h-299v1157h-442v-689c0 -130 -46 -241 -137 -332s-202 -137 -331 -137c-81 0 -158 20 -229 60l146 261c25 -14 53 -21 82 -21c47 0 87 17 120 50s50 73 50 120v964z" />
    <glyph glyph-name="uni043C" unicode="&#x43c;" horiz-adv-x="1918" 
d="M1585 1433h150v-1433h-299v894l-478 -545l-478 545v-894h-299v1433h150l627 -717z" />
    <glyph glyph-name="uni043D" unicode="&#x43d;" horiz-adv-x="1606" 
d="M1123 1434h300v-1434h-300v645h-643v-645h-299v1434h299v-512h643v512z" />
    <glyph glyph-name="uni043E" unicode="&#x43e;" horiz-adv-x="1639" 
d="M645 306c55 -23 113 -35 174 -35s119 12 174 35c55 25 102 59 140 103c70 81 105 183 105 308s-35 227 -105 308c-38 44 -85 78 -140 102s-113 36 -174 36s-119 -12 -174 -36s-102 -58 -140 -102c-71 -81 -106 -183 -106 -308s35 -227 106 -308c38 -44 85 -78 140 -103z
M531 1380c91 36 187 54 288 54s196 -18 287 -54c91 -35 169 -85 235 -150c67 -65 118 -142 154 -231c37 -89 55 -183 55 -282s-18 -193 -55 -282c-36 -89 -87 -166 -154 -231c-66 -65 -144 -115 -235 -151c-91 -35 -186 -53 -287 -53s-197 18 -288 53
c-90 36 -168 86 -235 151c-66 65 -117 142 -153 231c-37 89 -55 183 -55 282s18 193 55 282c36 89 87 166 153 231c67 65 145 115 235 150z" />
    <glyph glyph-name="uni043F" unicode="&#x43f;" horiz-adv-x="1607" 
d="M181 1435h1243v-1435h-300v1158h-643v-1158h-300v1435z" />
    <glyph glyph-name="uni0440" unicode="&#x440;" horiz-adv-x="1345" 
d="M480 851h393c29 0 59 6 89 19c26 11 47 26 62 45c19 24 28 54 28 89c0 63 -30 108 -90 133c-30 13 -60 20 -90 20h-392v-306zM181 1433h729c73 0 145 -18 218 -54c145 -71 217 -196 217 -375c0 -97 -23 -179 -68 -245c-37 -53 -87 -94 -150 -125
c-72 -35 -144 -53 -217 -53h-430v-581h-299v1433z" />
    <glyph glyph-name="uni0441" unicode="&#x441;" horiz-adv-x="1576" 
d="M1229 591l285 -88c-33 -117 -91 -216 -174 -297c-67 -65 -145 -116 -235 -152c-91 -36 -186 -54 -287 -54s-196 18 -287 53c-91 36 -169 86 -236 151c-66 65 -117 142 -153 231c-37 89 -55 183 -55 282s18 194 55 283c36 89 87 166 153 231c67 65 145 115 236 150
c91 36 186 54 287 54s196 -18 287 -54c90 -36 168 -87 235 -152c83 -81 141 -180 174 -298l-285 -87c-19 71 -50 132 -95 183c-38 44 -85 78 -141 102c-55 23 -113 35 -175 35c-61 0 -119 -12 -174 -36s-102 -58 -140 -102c-71 -81 -106 -184 -106 -309s35 -227 106 -308
c38 -44 85 -78 140 -102s113 -36 174 -36c62 0 120 12 175 35c56 24 103 58 141 102c45 51 76 112 95 183z" />
    <glyph glyph-name="uni0442" unicode="&#x442;" horiz-adv-x="1299" 
d="M28 1435h1243v-277h-472v-1158h-300v1158h-471v277z" />
    <glyph glyph-name="uni0443" unicode="&#x443;" horiz-adv-x="1459" 
d="M1137 1435h322l-565 -1039c-72 -134 -137 -229 -195 -284c-79 -75 -172 -112 -279 -112c-81 0 -157 20 -229 60l146 262c26 -15 53 -22 82 -22c64 0 112 27 145 82l57 104l-516 949h322l355 -653z" />
    <glyph glyph-name="uni0444" unicode="&#x444;" horiz-adv-x="1663" 
d="M981 420c96 18 168 44 217 78c77 54 116 127 116 219c0 93 -39 166 -116 220c-49 34 -121 60 -217 78v-595zM349 717c0 -92 39 -165 117 -219c48 -34 120 -60 216 -78v595c-96 -18 -168 -44 -216 -78c-78 -54 -117 -127 -117 -220zM981 1292c175 -24 314 -74 415 -150
c70 -53 124 -116 162 -191c37 -74 56 -152 56 -234s-19 -160 -56 -233c-38 -75 -92 -139 -162 -192c-101 -76 -240 -126 -415 -149v-143h-299v143c-175 24 -313 74 -414 149c-70 53 -124 117 -162 192c-37 73 -56 151 -56 233c0 83 19 161 56 234c38 75 92 139 162 191
c101 76 239 126 414 150v143h299v-143z" />
    <glyph glyph-name="uni0445" unicode="&#x445;" horiz-adv-x="1644" 
d="M1137 1436h346l-488 -678l546 -758h-346l-373 517l-373 -517h-346l546 758l-488 678h346l315 -437z" />
    <glyph glyph-name="uni0446" unicode="&#x446;" horiz-adv-x="1624" 
d="M1001 1434h300v-1158h210v-571h-299v295h-1150v1434h300v-1158h639v1158z" />
    <glyph glyph-name="uni0447" unicode="&#x447;" horiz-adv-x="1351" 
d="M868 1434h300v-1434h-300v546c-101 -34 -209 -51 -324 -51c-172 0 -304 40 -396 119c-93 81 -140 198 -140 353v464h299v-414c0 -88 23 -152 69 -191c44 -37 113 -55 208 -55c105 0 200 20 284 60v603z" />
    <glyph glyph-name="uni0448" unicode="&#x448;" horiz-adv-x="2134" 
d="M1653 1433h299v-1433h-1771v1433h299v-1157h437v1157h299v-1157h437v1157z" />
    <glyph glyph-name="uni0449" unicode="&#x449;" horiz-adv-x="2169" 
d="M1529 1434h300v-1158h210v-571h-299v295h-1684v1434h299v-1158h438v1158h299v-1158h437v1158z" />
    <glyph glyph-name="uni044A" unicode="&#x44a;" horiz-adv-x="1484" 
d="M613 276h393c30 0 60 7 89 20c27 11 47 26 62 45c19 24 28 54 28 89s-9 65 -28 88c-15 19 -35 35 -62 46c-30 13 -60 19 -89 19l-393 1v-308zM613 852h431c72 0 144 -18 217 -53c145 -71 217 -194 217 -370c0 -179 -72 -304 -217 -375c-73 -36 -145 -54 -217 -54h-731
v1157h-210v276h510v-581z" />
    <glyph glyph-name="uni044B" unicode="&#x44b;" horiz-adv-x="1996" 
d="M480 276h393c30 0 60 7 90 20c26 11 46 26 61 45c19 24 28 54 28 89c0 63 -30 108 -89 134c-30 13 -60 19 -90 18l-393 1v-307zM480 852h431c72 0 144 -18 217 -53c63 -31 113 -72 149 -125c45 -66 68 -148 68 -245c0 -179 -72 -304 -217 -375c-72 -36 -144 -54 -217 -54
h-730v1433h299v-581zM1515 0v1433h299v-1433h-299z" />
    <glyph glyph-name="uni044C" unicode="&#x44c;" horiz-adv-x="1345" 
d="M873 582h-393v-306h392c30 0 60 7 90 20c60 25 90 70 90 133c0 35 -9 65 -28 89c-15 19 -36 34 -62 45c-30 13 -60 19 -89 19zM910 0h-729v1433h299v-581h430c73 0 145 -18 217 -53c63 -31 113 -72 150 -125c45 -66 68 -148 68 -245c0 -179 -72 -304 -217 -375
c-73 -36 -145 -54 -218 -54z" />
    <glyph glyph-name="uni044D" unicode="&#x44d;" horiz-adv-x="1576" 
d="M1045 1381c91 -35 169 -85 235 -150c67 -65 118 -142 154 -231c37 -89 55 -184 55 -283s-18 -193 -55 -282c-36 -89 -87 -166 -154 -231c-66 -65 -144 -115 -235 -151c-91 -35 -187 -53 -288 -53c-100 0 -196 18 -287 54c-90 36 -168 87 -234 152
c-83 81 -141 180 -174 297l285 88c19 -71 50 -132 95 -183c38 -44 85 -78 141 -102c55 -23 113 -35 174 -35s120 12 175 35c55 25 102 59 140 103c40 46 69 103 88 170h-588v276h588c-18 67 -47 124 -88 171c-38 44 -85 78 -140 102s-114 36 -175 36s-119 -12 -174 -35
c-56 -24 -103 -58 -141 -102c-45 -51 -76 -112 -95 -183l-285 87c33 118 91 217 174 298c66 65 144 116 234 152c91 36 187 54 287 54c101 0 197 -18 288 -54z" />
    <glyph glyph-name="uni044E" unicode="&#x44e;" horiz-adv-x="2220" 
d="M1563 307c55 24 101 58 138 102c69 81 104 184 104 309s-35 227 -104 308c-37 44 -83 78 -138 102c-53 24 -110 36 -171 36s-118 -12 -171 -36c-55 -24 -101 -58 -138 -102c-69 -81 -104 -183 -104 -308s35 -228 104 -309c37 -44 83 -78 138 -102c53 -24 110 -36 171 -36
c60 0 117 12 171 36zM1675 1382c89 -36 166 -86 231 -151s116 -142 152 -231c35 -89 53 -183 53 -282s-18 -194 -53 -283c-36 -89 -87 -166 -152 -231s-142 -115 -231 -150c-89 -36 -184 -54 -283 -54s-194 18 -283 53c-89 36 -166 86 -231 151c-101 101 -166 226 -193 375
h-204v-579h-300v1435h300v-580h204c27 149 92 274 193 375c65 65 142 116 231 151c89 36 184 54 283 54s194 -18 283 -53z" />
    <glyph glyph-name="uni044F" unicode="&#x44f;" horiz-adv-x="1512" 
d="M1030 851v306h-392c-30 0 -60 -7 -90 -20c-60 -25 -90 -70 -90 -133c0 -35 9 -65 28 -89c15 -19 36 -34 62 -45c30 -13 60 -19 89 -19h393zM424 0h-336l356 609c-77 26 -139 65 -186 118c-62 71 -93 164 -93 277c0 179 73 304 218 375c72 36 144 54 217 54h729v-1433
h-299v581h-266z" />
    <glyph glyph-name="uni0451" unicode="&#x451;" horiz-adv-x="1231" 
d="M138 1434h1009v-277h-710v-236h530v-275h-530v-371h710v-275h-1009v1434zM543 1615c-29 -29 -65 -44 -106 -44s-77 15 -106 44s-44 65 -44 106c0 42 15 78 44 107s65 43 106 43s77 -14 106 -43s44 -65 44 -107c0 -41 -15 -77 -44 -106zM955 1615
c-29 -29 -65 -44 -107 -44c-41 0 -77 15 -106 44s-44 65 -44 106c0 42 15 78 44 107s65 43 106 43c42 0 78 -14 107 -43s43 -65 43 -107c0 -41 -14 -77 -43 -106z" />
    <glyph glyph-name="a" unicode="a" horiz-adv-x="1483" 
d="M594 1434h296l568 -1434h-295l-87 217h-669l-86 -217h-296zM742 1061l-228 -573h455z" />
    <glyph glyph-name="b" unicode="b" horiz-adv-x="1423" 
d="M480 276h392c30 0 60 6 90 19c60 26 90 71 90 134c0 64 -30 109 -90 134c-30 13 -60 19 -89 19h-393v-306zM758 1157h-278v-305h299c15 1 30 4 45 9c19 6 37 14 52 24c41 27 61 66 61 119c0 63 -30 108 -90 134c-29 13 -59 19 -89 19zM1182 871c-14 -32 -34 -65 -61 -98
c65 -36 116 -78 153 -127c47 -63 71 -135 71 -217c0 -179 -72 -304 -217 -375c-73 -36 -145 -54 -218 -54h-729v1433h595c73 0 145 -18 217 -54c145 -71 217 -196 217 -375c0 -46 -9 -90 -28 -133z" />
    <glyph glyph-name="c" unicode="c" horiz-adv-x="1576" 
d="M1229 591l285 -88c-33 -117 -91 -216 -174 -297c-67 -65 -145 -116 -235 -152c-91 -36 -186 -54 -287 -54s-196 18 -287 53c-91 36 -169 86 -236 151c-66 65 -117 142 -153 231c-37 89 -55 183 -55 282s18 194 55 283c36 89 87 166 153 231c67 65 145 115 236 150
c91 36 186 54 287 54s196 -18 287 -54c90 -36 168 -87 235 -152c83 -81 141 -180 174 -298l-285 -87c-19 71 -50 132 -95 183c-38 44 -85 78 -141 102c-55 23 -113 35 -175 35c-61 0 -119 -12 -174 -36s-102 -58 -140 -102c-71 -81 -106 -184 -106 -309s35 -227 106 -308
c38 -44 85 -78 140 -102s113 -36 174 -36c62 0 120 12 175 35c56 24 103 58 141 102c45 51 76 112 95 183z" />
    <glyph glyph-name="d" unicode="d" horiz-adv-x="1518" 
d="M884 306c55 24 102 58 140 102c71 81 106 184 106 308c0 125 -35 228 -106 309c-38 44 -85 78 -140 102s-113 36 -174 36h-230v-893h230c61 0 119 12 174 36zM997 1379c91 -35 169 -85 235 -150c67 -65 118 -142 154 -231c37 -89 55 -183 55 -282s-18 -192 -55 -281
c-36 -89 -87 -166 -154 -231c-66 -65 -144 -115 -235 -151c-91 -35 -186 -53 -287 -53h-529v1433h529c101 0 196 -18 287 -54z" />
    <glyph glyph-name="e" unicode="e" horiz-adv-x="1215" 
d="M181 1434h1009v-276h-709v-236h528v-276h-528v-370h709v-276h-1009v1434z" />
    <glyph glyph-name="f" unicode="f" horiz-adv-x="1190" 
d="M181 1434h1009v-276h-709v-236h528v-276h-528v-646h-300v1434z" />
    <glyph glyph-name="g" unicode="g" horiz-adv-x="1606" 
d="M820 922h704c19 -66 28 -134 28 -205c0 -99 -18 -193 -55 -282c-36 -89 -87 -166 -154 -231c-66 -65 -144 -115 -235 -151c-91 -35 -187 -53 -288 -53s-196 18 -287 53c-91 36 -169 86 -236 151c-66 65 -117 142 -153 231c-37 89 -55 183 -55 282s18 194 55 283
c36 89 87 166 153 231c67 65 145 115 236 150c91 36 186 54 287 54c159 0 302 -42 427 -126l-177 -224c-73 53 -156 79 -250 79c-61 0 -119 -12 -174 -36s-102 -58 -140 -102c-71 -81 -106 -184 -106 -309s35 -227 106 -308c38 -44 85 -78 140 -102s113 -36 174 -36
s120 12 175 36s102 58 140 102c55 63 88 142 101 237h-416v276z" />
    <glyph glyph-name="h" unicode="h" horiz-adv-x="1606" 
d="M1123 1434h300v-1434h-300v645h-643v-645h-299v1434h299v-512h643v512z" />
    <glyph glyph-name="i" unicode="i" horiz-adv-x="670" 
d="M181 0v1434h300v-1434h-300z" />
    <glyph glyph-name="j" unicode="j" horiz-adv-x="839" 
d="M398 1434h299v-965c0 -130 -46 -241 -137 -332s-202 -137 -332 -137c-81 0 -157 20 -228 60l146 261c25 -14 53 -21 82 -21c47 0 87 17 120 50s50 73 50 120v964z" />
    <glyph glyph-name="k" unicode="k" horiz-adv-x="1487" 
d="M926 1435h356l-429 -454l571 -981h-324l-448 769l-171 -182v-587h-300v1435h300v-471z" />
    <glyph glyph-name="l" unicode="l" horiz-adv-x="1190" 
d="M181 1435h300v-1158h709v-277h-1009v1435z" />
    <glyph glyph-name="m" unicode="m" horiz-adv-x="1906" 
d="M1589 1434h134v-1434h-269v906l-493 -536l-493 536v-906h-287v1434h151l629 -708z" />
    <glyph glyph-name="n" unicode="n" horiz-adv-x="1677" 
d="M1194 1433h300v-1433h-150l-864 909v-909h-299v1433h150l863 -909v909z" />
    <glyph glyph-name="o" unicode="o" horiz-adv-x="1639" 
d="M645 306c55 -23 113 -35 174 -35s119 12 174 35c55 25 102 59 140 103c70 81 105 183 105 308s-35 227 -105 308c-38 44 -85 78 -140 102s-113 36 -174 36s-119 -12 -174 -36s-102 -58 -140 -102c-71 -81 -106 -183 -106 -308s35 -227 106 -308c38 -44 85 -78 140 -103z
M531 1380c91 36 187 54 288 54s196 -18 287 -54c91 -35 169 -85 235 -150c67 -65 118 -142 154 -231c37 -89 55 -183 55 -282s-18 -193 -55 -282c-36 -89 -87 -166 -154 -231c-66 -65 -144 -115 -235 -151c-91 -35 -186 -53 -287 -53s-197 18 -288 53
c-90 36 -168 86 -235 151c-66 65 -117 142 -153 231c-37 89 -55 183 -55 282s18 193 55 282c36 89 87 166 153 231c67 65 145 115 235 150z" />
    <glyph glyph-name="p" unicode="p" horiz-adv-x="1345" 
d="M480 851h393c29 0 59 6 89 19c26 11 47 26 62 45c19 24 28 54 28 89c0 63 -30 108 -90 133c-30 13 -60 20 -90 20h-392v-306zM181 1433h729c73 0 145 -18 218 -54c145 -71 217 -196 217 -375c0 -97 -23 -179 -68 -245c-37 -53 -87 -94 -150 -125
c-72 -35 -144 -53 -217 -53h-430v-581h-299v1433z" />
    <glyph glyph-name="q" unicode="q" horiz-adv-x="1615" 
d="M354 717c0 -125 35 -227 106 -308c38 -44 85 -78 140 -102s113 -36 174 -36s119 12 174 36s102 58 140 102c71 81 106 183 106 308s-35 228 -106 309c-38 44 -85 78 -140 102s-113 36 -174 36s-119 -12 -174 -36s-102 -58 -140 -102c-71 -81 -106 -184 -106 -309z
M1450 999c37 -89 55 -183 55 -282c0 -190 -61 -352 -183 -486l173 -233l-241 -178l-177 240c-95 -40 -196 -60 -303 -60c-101 0 -197 18 -288 54c-90 35 -168 85 -235 150c-66 65 -117 142 -153 231c-37 89 -55 183 -55 282s18 193 55 282c36 89 87 166 153 231
c67 65 145 116 235 151c91 35 187 53 288 53s196 -18 287 -53s169 -86 235 -151c67 -65 118 -142 154 -231z" />
    <glyph glyph-name="r" unicode="r" horiz-adv-x="1510" 
d="M480 1157v-306h393c29 0 59 6 89 19c26 11 47 26 62 45c19 24 28 54 28 89c0 63 -30 108 -90 133c-30 13 -60 20 -90 20h-392zM1422 0h-336l-340 581h-266v-581h-299v1433h729c73 0 145 -18 218 -54c145 -71 217 -196 217 -375c0 -113 -31 -206 -93 -277
c-47 -53 -109 -92 -186 -118z" />
    <glyph glyph-name="s" unicode="s" horiz-adv-x="1313" 
d="M662 864c15 -2 24 -3 27 -4s8 -1 15 -2l10 -1l13 -2c25 -3 48 -7 70 -11c71 -13 133 -32 188 -56c173 -74 259 -191 259 -352c0 -149 -67 -263 -201 -342c-105 -63 -223 -94 -356 -94c-135 0 -267 35 -398 106c-45 24 -88 52 -131 83c-15 11 -29 23 -44 35
c-6 5 -12 9 -17 14l-7 6l-6 5l184 205c29 -30 69 -60 118 -91c99 -60 199 -90 300 -90c99 0 171 23 217 68c16 16 28 34 36 54c3 8 6 16 7 23s2 12 2 17c0 56 -44 99 -132 128c-28 9 -61 17 -99 24l-21 3l-18 3c-14 2 -22 3 -25 4c-2 0 -7 1 -14 2l-10 1l-13 2
c-23 3 -46 7 -68 11c-70 14 -133 33 -188 56c-174 73 -261 186 -261 337c0 181 83 307 250 376c53 22 112 37 176 46c21 2 41 4 61 5h18h9c81 0 158 -10 232 -30c102 -27 200 -74 293 -141l-170 -204c-59 45 -132 75 -220 92c-29 5 -58 9 -87 11c-10 1 -20 1 -29 1h-16
c-23 0 -45 -1 -65 -3c-28 -4 -52 -10 -73 -18c-55 -22 -83 -59 -83 -112c0 -59 43 -103 128 -133c28 -10 61 -18 99 -25l21 -4z" />
    <glyph glyph-name="t" unicode="t" horiz-adv-x="1299" 
d="M28 1435h1243v-277h-472v-1158h-300v1158h-471v277z" />
    <glyph glyph-name="u" unicode="u" horiz-adv-x="1521" 
d="M1082 1435h300v-778c0 -186 -55 -342 -165 -469c-54 -63 -123 -110 -206 -143c-77 -30 -161 -45 -251 -45c-89 0 -173 15 -250 45c-83 33 -152 80 -207 143c-109 127 -164 283 -164 469v778h300v-24v-740c0 -106 24 -195 72 -267c28 -42 65 -74 112 -97
c43 -20 89 -30 138 -30s95 10 138 30c47 23 84 55 112 97c47 72 71 161 71 267v764z" />
    <glyph glyph-name="v" unicode="v" horiz-adv-x="1517" 
d="M1168 1435h324l-580 -1435h-307l-581 1435h324l410 -1041z" />
    <glyph glyph-name="w" unicode="w" horiz-adv-x="2090" 
d="M1689 1435h317l-383 -1435h-303l-275 1018l-275 -1018h-303l-383 1435h317l249 -940l248 940h294l248 -940z" />
    <glyph glyph-name="x" unicode="x" horiz-adv-x="1644" 
d="M1137 1436h346l-488 -678l546 -758h-346l-373 517l-373 -517h-346l546 758l-488 678h346l315 -437z" />
    <glyph glyph-name="y" unicode="y" horiz-adv-x="1334" 
d="M981 1433h340l-505 -728v-705h-299v705l-504 728h340l314 -464z" />
    <glyph glyph-name="z" unicode="z" horiz-adv-x="1468" 
d="M175 1435h1116v-138l-705 -1020h705v-277h-1116v138l705 1020h-705v277z" />
    </font>
</defs>
</svg>
